<svg width="41" height="40" viewBox="0 0 41 40" fill="none" xmlns="http://www.w3.org/2000/svg">
<g clip-path="url(#clip0_411_3031)">
<rect x="0.388794" width="40" height="40" rx="20" fill="#929293"/>
<g clip-path="url(#clip1_411_3031)">
<path d="M23.0137 20.2085C22.622 20.2085 22.3054 20.5259 22.3054 20.9168V23.7502C22.3054 24.1404 21.988 24.4585 21.597 24.4585H19.472V13.8336C19.472 13.2287 19.0867 12.6882 18.5073 12.487L18.2976 12.4169H21.597C21.988 12.4169 22.3054 12.7349 22.3054 13.1253V15.2503C22.3054 15.6412 22.622 15.9585 23.0137 15.9585C23.4054 15.9585 23.722 15.6412 23.722 15.2503V13.1253C23.722 11.9537 22.7686 11.0003 21.597 11.0003H13.9825C13.9555 11.0003 13.933 11.0124 13.9068 11.0159C13.8727 11.013 13.8401 11.0003 13.8055 11.0003C13.0242 11.0003 12.3888 11.6356 12.3888 12.4169V25.1667C12.3888 25.7716 12.7741 26.3121 13.3535 26.5133L17.6163 27.9342C17.7608 27.9789 17.9045 28.0001 18.0554 28.0001C18.8367 28.0001 19.472 27.3647 19.472 26.5834V25.8751H21.597C22.7686 25.8751 23.722 24.9217 23.722 23.7502V20.9168C23.722 20.5259 23.4054 20.2085 23.0137 20.2085Z" fill="white"/>
<path d="M29.1812 17.5827L26.3478 14.7494C26.1453 14.5468 25.8406 14.4859 25.5758 14.5956C25.3116 14.7055 25.1387 14.9639 25.1387 15.2502V17.3752H22.3055C21.9144 17.3752 21.597 17.6924 21.597 18.0834C21.597 18.4745 21.9144 18.7917 22.3055 18.7917H25.1387V20.9167C25.1387 21.2029 25.3116 21.4614 25.5758 21.5713C25.8406 21.681 26.1453 21.6201 26.3478 21.4176L29.1812 18.5842C29.4581 18.3073 29.4581 17.8596 29.1812 17.5827Z" fill="white"/>
</g>
</g>
<defs>
<clipPath id="clip0_411_3031">
<rect x="0.388794" width="40" height="40" rx="20" fill="white"/>
</clipPath>
<clipPath id="clip1_411_3031">
<rect width="17" height="17" fill="white" transform="translate(12.3888 11)"/>
</clipPath>
</defs>
</svg>
