<svg width="62" height="62" viewBox="0 0 62 62" fill="none" xmlns="http://www.w3.org/2000/svg">
<g filter="url(#filter0_dd_435_22031)">
<g clip-path="url(#clip0_435_22031)">
<rect x="11" y="7" width="40" height="40" rx="20" fill="#929293"/>
</g>
</g>
<g clip-path="url(#clip1_435_22031)">
<path fill-rule="evenodd" clip-rule="evenodd" d="M33.2153 33.4471C33.2153 32.8595 32.7389 32.3832 32.1514 32.3832H30.8486C30.5665 32.3832 30.2959 32.4953 30.0963 32.6948C29.8968 32.8943 29.7847 33.1649 29.7847 33.4471C29.7847 34.0346 30.2611 34.5109 30.8486 34.5109H32.1514C32.7389 34.5109 33.2153 34.0346 33.2153 33.4471ZM25.2366 30.7037C25.4143 30.7173 25.6293 30.7251 25.8452 30.7124C25.9603 31.2959 26.2461 31.837 26.6727 32.2637C27.2391 32.83 28.0073 33.1482 28.8082 33.1482H29.2142C29.1963 33.2462 29.1871 33.3461 29.1871 33.4471C29.1871 33.5491 29.1963 33.649 29.2139 33.7459H28.8082C27.8488 33.7459 26.9286 33.3647 26.2501 32.6863C25.7089 32.145 25.3568 31.4499 25.2366 30.7037ZM24.9326 30.0678C24.4607 29.9882 24.0217 29.7639 23.6789 29.4211C23.2442 28.9864 23 28.3968 23 27.7821V26.3695C23 25.7548 23.2442 25.1652 23.6789 24.7305C24.1136 24.2958 24.7032 24.0515 25.3179 24.0515H25.4722C25.7189 20.9385 28.3234 18.489 31.5 18.489C34.6766 18.489 37.2811 20.9385 37.5278 24.0515H37.6821C38.2968 24.0515 38.8864 24.2958 39.3211 24.7305C39.7558 25.1652 40 25.7548 40 26.3695V27.7821C40 28.3968 39.7558 28.9864 39.3211 29.4211C38.8864 29.8558 38.2968 30.1 37.6821 30.1H36.998C36.7144 30.1 36.4844 29.87 36.4844 29.5864V24.5359C36.4844 21.7831 34.2528 19.5515 31.5 19.5515C28.7472 19.5515 26.5156 21.7831 26.5156 24.5359V29.5864C26.5156 29.7867 26.401 29.9602 26.2337 30.0449C25.7732 30.2047 25.0591 30.0891 24.9326 30.0678Z" fill="white"/>
</g>
<defs>
<filter id="filter0_dd_435_22031" x="0" y="0" width="62" height="62" filterUnits="userSpaceOnUse" color-interpolation-filters="sRGB">
<feFlood flood-opacity="0" result="BackgroundImageFix"/>
<feColorMatrix in="SourceAlpha" type="matrix" values="0 0 0 0 0 0 0 0 0 0 0 0 0 0 0 0 0 0 127 0" result="hardAlpha"/>
<feOffset dy="1"/>
<feGaussianBlur stdDeviation="1.5"/>
<feColorMatrix type="matrix" values="0 0 0 0 0 0 0 0 0 0 0 0 0 0 0 0 0 0 0.3 0"/>
<feBlend mode="normal" in2="BackgroundImageFix" result="effect1_dropShadow_435_22031"/>
<feColorMatrix in="SourceAlpha" type="matrix" values="0 0 0 0 0 0 0 0 0 0 0 0 0 0 0 0 0 0 127 0" result="hardAlpha"/>
<feMorphology radius="3" operator="dilate" in="SourceAlpha" result="effect2_dropShadow_435_22031"/>
<feOffset dy="4"/>
<feGaussianBlur stdDeviation="4"/>
<feColorMatrix type="matrix" values="0 0 0 0 0 0 0 0 0 0 0 0 0 0 0 0 0 0 0.15 0"/>
<feBlend mode="normal" in2="effect1_dropShadow_435_22031" result="effect2_dropShadow_435_22031"/>
<feBlend mode="normal" in="SourceGraphic" in2="effect2_dropShadow_435_22031" result="shape"/>
</filter>
<clipPath id="clip0_435_22031">
<rect x="11" y="7" width="40" height="40" rx="20" fill="white"/>
</clipPath>
<clipPath id="clip1_435_22031">
<rect x="23" y="18" width="17" height="17" rx="8.5" fill="white"/>
</clipPath>
</defs>
</svg>
