<svg width="24" height="24" viewBox="0 0 24 24" fill="none" xmlns="http://www.w3.org/2000/svg">
<g clip-path="url(#clip0_411_21994)">
<path d="M21.5 22H2.5C1.122 22 0 20.878 0 19.5V17.5C0 17.224 0.224 17 0.5 17H1C2.103 17 3 16.103 3 15C3 13.897 2.103 13 1 13H0.5C0.224 13 0 12.776 0 12.5V10.5C0 9.122 1.122 8 2.5 8H21.5C22.878 8 24 9.122 24 10.5V12.5C24 12.776 23.776 13 23.5 13H23C21.897 13 21 13.897 21 15C21 15.534 21.208 16.036 21.586 16.414C21.963 16.792 22.465 17 22.999 17H23.499C23.775 17 23.999 17.224 23.999 17.5V19.5C24 20.878 22.878 22 21.5 22ZM1 18V19.5C1 20.327 1.673 21 2.5 21H21.5C22.327 21 23 20.327 23 19.5V18C22.199 18 21.445 17.688 20.879 17.122C20.312 16.555 20 15.801 20 15C20 13.346 21.346 12 23 12V10.5C23 9.673 22.327 9 21.5 9H2.5C1.673 9 1 9.673 1 10.5V12C2.654 12 4 13.346 4 15C4 16.654 2.654 18 1 18Z" fill="#EC1C2D"/>
<path d="M8.5 10C8.224 10 8 9.776 8 9.5V8.5C8 8.224 8.224 8 8.5 8C8.776 8 9 8.224 9 8.5V9.5C9 9.776 8.776 10 8.5 10Z" fill="#EC1C2D"/>
<path d="M8.5 18.461C8.224 18.461 8 18.237 8 17.961V16.27C8 15.994 8.224 15.77 8.5 15.77C8.776 15.77 9 15.993 9 16.27V17.962C9 18.238 8.776 18.461 8.5 18.461ZM8.5 14.231C8.224 14.231 8 14.007 8 13.731V12.039C8 11.763 8.224 11.539 8.5 11.539C8.776 11.539 9 11.763 9 12.039V13.731C9 14.007 8.776 14.231 8.5 14.231Z" fill="#EC1C2D"/>
<path d="M8.5 22C8.224 22 8 21.776 8 21.5V20.5C8 20.224 8.224 20 8.5 20C8.776 20 9 20.224 9 20.5V21.5C9 21.776 8.776 22 8.5 22Z" fill="#EC1C2D"/>
<path d="M2.49999 9C2.29699 9 2.10599 8.876 2.03199 8.675C1.93499 8.416 2.06599 8.128 2.32499 8.03199L18.225 2.095C18.998 1.805 19.906 2.239 20.17 3.01799L21.973 8.33899C22.061 8.601 21.921 8.88399 21.66 8.97299C21.401 9.062 21.115 8.921 21.026 8.66L19.223 3.339C19.135 3.079 18.833 2.937 18.574 3.031L2.67399 8.968C2.61699 8.99 2.55799 9 2.49999 9Z" fill="#EC1C2D"/>
</g>
<defs>
<clipPath id="clip0_411_21994">
<rect width="24" height="24" fill="white"/>
</clipPath>
</defs>
</svg>
